<?xml version="1.0" standalone="no"?>
<!DOCTYPE svg PUBLIC "-//W3C//DTD SVG 1.1//EN" "http://www.w3.org/Graphics/SVG/1.1/DTD/svg11.dtd" >
<svg xmlns="http://www.w3.org/2000/svg">
<metadata>
This is a custom SVG webfont generated by Fontspring.
</metadata>
<defs>
<font id="AvalonDemi" horiz-adv-x="1030" >
<font-face units-per-em="2048" ascent="1536" descent="-512" />
<missing-glyph horiz-adv-x="514" />
<glyph unicode=" "  horiz-adv-x="514" />
<glyph unicode="&#x09;" horiz-adv-x="514" />
<glyph unicode="&#xa0;" horiz-adv-x="514" />
<glyph unicode="!" horiz-adv-x="534" d="M143 0v236h248v-236h-248zM143 350v1022h248v-1022h-248z" />
<glyph unicode="&#x22;" horiz-adv-x="497" d="M57 1372h156l-16 -428h-123zM285 1372h155l-16 -428h-123z" />
<glyph unicode="#" d="M51 436l23 164h178l24 172h-178l23 164h178l43 309h162l-43 -309h184l45 309h162l-45 -309h172l-25 -164h-170l-24 -172h172l-25 -164h-170l-43 -309h-162l43 309h-184l-45 -309h-162l43 309h-176zM414 600h184l25 172h-185z" />
<glyph unicode="$" d="M72 438v25h245q2 -72 48.5 -116t116 -44t116.5 46t47 114q0 92 -70 131q-29 18 -135 47q-127 37 -209 109q-106 94 -106 258q0 127 67.5 219t186.5 125v237h233v-241q98 -29 166 -118t74 -200h-234q-33 113 -122 113q-51 0 -87 -37t-36 -90q0 -68 61 -111q39 -25 168 -63 q291 -90 291 -379q0 -137 -76 -239.5t-205 -137.5v-246h-233v244q-98 27 -163.5 78t-104.5 125.5t-39 150.5z" />
<glyph unicode="%" horiz-adv-x="1667" d="M70 1069q0 135 98 232.5t235.5 97.5t235.5 -97.5t98 -236.5t-98 -237.5t-236 -98.5q-139 0 -236 98.5t-97 241.5zM276 1067q0 -57 37 -96t90.5 -39t90 39t36.5 94t-37.5 95t-89 40t-89.5 -40t-38 -93zM457 0l569 1372h178l-569 -1372h-178zM926 313q0 135 99 233.5 t237 98.5q139 0 237 -98t98 -238q0 -137 -98 -236.5t-237.5 -99.5t-237.5 98.5t-98 241.5zM1130 311q0 -59 38 -99t94 -40q53 0 91 40t38 97.5t-38 97t-91.5 39.5t-92.5 -40t-39 -95z" />
<glyph unicode="&#x26;" horiz-adv-x="1267" d="M70 408q0 125 60 216t198 171q-70 82 -93.5 131t-23.5 118q0 152 100.5 253.5t250 101.5t251.5 -97.5t102 -240.5q0 -215 -217 -338l127 -141l133 227h275l-238 -414l244 -264l-180 -158l-189 205q-152 -207 -350 -207q-186 0 -318 128.5t-132 308.5zM317 395 q0 -80 53.5 -132t135.5 -52q57 0 101 35t91 119l-215 233q-166 -76 -166 -203zM446 1051q0 -61 97 -158l28 14q111 55 111 142q0 53 -33 84.5t-88 31.5q-47 0 -81 -32.5t-34 -81.5z" />
<glyph unicode="'" horiz-adv-x="270" d="M57 1372h156l-16 -428h-123z" />
<glyph unicode="(" horiz-adv-x="636" d="M70 512q0 219 76.5 427t209.5 345q80 84 226 158v-264q-125 -115 -191.5 -288t-66.5 -376q0 -199 71.5 -383t186.5 -278v-265q-90 35 -149.5 81t-125.5 130q-237 305 -237 713z" />
<glyph unicode=")" horiz-adv-x="636" d="M55 -147q258 240 258 663q0 199 -71.5 383t-186.5 279v264q90 -35 149.5 -81t125.5 -130q238 -305 237 -715q0 -217 -76.5 -424t-209.5 -346q-90 -92 -226 -158v265z" />
<glyph unicode="*" horiz-adv-x="899" d="M96 1057l51 157l224 -79l-6 237h170l-7 -239l222 79l53 -157l-225 -70l141 -188l-135 -101l-138 197l-137 -197l-133 101l146 190z" />
<glyph unicode="+" d="M76 594v184h346v348h184v-348h348v-184h-348v-346h-184v346h-346z" />
<glyph unicode="," horiz-adv-x="481" d="M117 0v248h248v-262q0 -123 -78 -189q-70 -57 -156 -57h-12v125q59 10 83.5 33.5t24.5 70.5q0 18 -2 31h-108z" />
<glyph unicode="-" horiz-adv-x="514" d="M0 426v207h514v-207h-514z" />
<glyph unicode="." horiz-adv-x="481" d="M117 0v248h248v-248h-248z" />
<glyph unicode="/" horiz-adv-x="849" d="M-47 -344l639 1716h176l-641 -1716h-174z" />
<glyph unicode="0" d="M57 444v494q0 227 156 354q135 106 301 107q199 0 328 -130t129 -331v-506q0 -201 -127 -330t-324 -129q-219 0 -358 156q-105 112 -105 315zM305 453q0 -113 58.5 -179.5t156.5 -66.5q94 0 150.5 64.5t56.5 170.5v498q0 88 -63.5 156.5t-147.5 68.5q-90 0 -150.5 -66.5 t-60.5 -164.5v-481z" />
<glyph unicode="1" d="M264 1139v233h420v-1372h-248v1139h-172z" />
<glyph unicode="2" d="M59 946v22q0 175 126 300q134 133 324.5 133t322 -131t131.5 -320q0 -180 -121 -317q-78 -92 -144 -150l-278 -250h543v-233h-887v233l489 457q152 143 152 273q0 90 -56.5 147t-144.5 57q-59 0 -108.5 -31.5t-75.5 -84.5q-23 -45 -23 -150h-248z" />
<glyph unicode="3" d="M27 414h247q8 -88 72 -147.5t150 -59.5q88 0 153.5 66.5t65.5 156.5q0 104 -74 165.5t-201 61.5h-39v234h43q78 0 124 39t46 106q0 57 -35.5 93t-93.5 36q-98 0 -112 -125h-248q8 86 27.5 138.5t64.5 99.5q111 121 272 121q154 0 263.5 -109.5t109.5 -261.5 q0 -150 -119 -242q63 -27 97 -55.5t65 -81.5q57 -96 58 -219q0 -193 -136.5 -325t-337.5 -132q-188 0 -320 126.5t-142 314.5z" />
<glyph unicode="4" d="M4 207v201l631 964h209v-932h145v-233h-145v-207h-248v207h-592zM268 440h328v516z" />
<glyph unicode="5" d="M20 408h246q18 -94 76.5 -147.5t142.5 -53.5q98 0 166 70.5t68 173.5q0 98 -68.5 169.5t-163.5 71.5q-106 0 -184 -98l-221 59l129 719h623v-233h-437l-45 -254q88 41 176 41q180 0 309.5 -139.5t129.5 -333.5q0 -201 -139.5 -340.5t-338.5 -139.5q-184 0 -323.5 129.5 t-145.5 305.5z" />
<glyph unicode="6" d="M39 459q0 164 88 297l405 616h291l-305 -465q57 4 68 4q166 0 285.5 -131t119.5 -313q0 -207 -138 -350.5t-337 -143.5t-338 141.5t-139 344.5zM287 449q0 -100 66.5 -171t160.5 -71q96 0 162.5 68.5t66.5 166.5q0 100 -67.5 171t-163.5 71q-94 0 -159.5 -68.5 t-65.5 -166.5z" />
<glyph unicode="7" d="M121 1139v233h809v-233l-496 -1139h-274l512 1139h-551z" />
<glyph unicode="8" d="M55 428q0 133 82 240q47 61 123 96q-123 123 -123 258q0 154 110.5 265.5t266.5 111.5q158 0 269.5 -109.5t111.5 -265.5q0 -152 -123 -260q76 -43 113 -86q88 -100 88 -256q0 -184 -135.5 -316.5t-325.5 -132.5t-323.5 133.5t-133.5 321.5zM303 420q0 -88 61.5 -150.5 t149.5 -62.5t149.5 62.5t61.5 148.5t-61.5 148.5t-145.5 62.5q-90 0 -152.5 -60.5t-62.5 -148.5zM371 1020q0 -61 43 -104.5t102 -43.5q61 0 104.5 43t43.5 102.5t-43 102.5t-101 43q-63 0 -106 -42t-43 -101z" />
<glyph unicode="9" d="M39 909q0 209 135 350.5t336 141.5q211 0 356 -156q123 -131 123 -321q0 -176 -119 -357l-374 -567h-291l303 463q-41 -4 -49 -4q-180 0 -300 128.5t-120 321.5zM279 920q0 -98 68.5 -168t164.5 -70q98 0 167 69.5t69 166t-69 166t-163 69.5q-98 0 -167.5 -68.5 t-69.5 -164.5z" />
<glyph unicode=":" horiz-adv-x="481" d="M117 0v248h248v-248h-248zM117 782v248h248v-248h-248z" />
<glyph unicode=";" horiz-adv-x="481" d="M117 0v248h248v-262q0 -123 -78 -189q-70 -57 -156 -57h-12v125q59 10 83.5 33.5t24.5 70.5q0 18 -2 31h-108zM117 782v248h248v-248h-248z" />
<glyph unicode="&#x3c;" d="M70 596v207l893 448v-243l-631 -310l631 -307v-244z" />
<glyph unicode="=" d="M76 436v172h878v-172h-878zM76 764v172h878v-172h-878z" />
<glyph unicode="&#x3e;" d="M70 145v246l630 307l-630 310v243l893 -448v-209z" />
<glyph unicode="?" horiz-adv-x="933" d="M27 971q14 172 90 268q55 70 149 115t189 45q172 0 292.5 -126t120.5 -304q0 -90 -43 -167t-143 -163q-70 -61 -95.5 -109.5t-25.5 -119.5q0 -35 2 -64h-246q-2 25 -2 53q0 143 68 260q25 39 48.5 64t109.5 96q80 68 80 158q0 78 -48.5 126t-126.5 48q-94 0 -139 -66 q-20 -31 -33 -114h-247zM317 0v248h248v-248h-248z" />
<glyph unicode="@" horiz-adv-x="1564" d="M94 526q0 303 211 513t516 210q281 0 466.5 -172t185.5 -434q0 -188 -102.5 -332.5t-233.5 -144.5q-61 0 -104.5 33.5t-53.5 91.5q-92 -141 -262 -141q-123 0 -206 93t-83 230q0 166 107.5 289t252.5 123q143 0 209 -119l19 96h162l-78 -397q-12 -61 -13 -92 q0 -35 15.5 -55.5t42.5 -20.5q70 0 128 108.5t58 237.5q0 205 -140 334t-364 129q-244 0 -409.5 -168t-165.5 -416q0 -242 158 -403q152 -154 415 -154q215 0 389 68l37 -144q-184 -68 -426 -67q-319 0 -514 186q-102 98 -159.5 234.5t-57.5 283.5zM612 481q0 -76 42 -122 t108 -46q76 0 134 72t58 168q0 74 -40 119t-105 45q-78 0 -137.5 -71t-59.5 -165z" />
<glyph unicode="A" horiz-adv-x="1341" d="M-2 0l571 1372h199l575 -1372h-280l-145 354h-488l-151 -354h-281zM522 592h295l-147 422z" />
<glyph unicode="B" horiz-adv-x="1079" d="M127 0v1372h270q158 0 236 -14.5t141 -54.5q74 -47 119 -127t45 -164q0 -174 -154 -264q236 -82 236 -340q0 -213 -180 -330q-121 -78 -346 -78h-367zM381 838h84q106 0 156 28q63 39 63 119q0 72 -51 111t-146 39h-106v-297zM381 238h129q256 0 256 178q0 88 -66.5 136 t-185.5 48h-133v-362z" />
<glyph unicode="C" horiz-adv-x="1456" d="M66 692q0 291 208.5 499t501.5 208q254 0 451 -160q74 -59 115.5 -114.5t80.5 -143.5h-288q-156 180 -369 180q-180 0 -313.5 -140t-133.5 -332.5t136.5 -335t320.5 -142.5q98 0 177 39t167 131h295q-76 -182 -252 -295t-383 -113q-293 0 -503.5 212t-210.5 507z" />
<glyph unicode="D" horiz-adv-x="1292" d="M127 0v1372h311q311 0 486 -104q139 -82 222 -242t83 -344q0 -195 -93.5 -358.5t-248.5 -241.5q-166 -82 -443 -82h-317zM381 238h53q221 0 336 67q96 57 150.5 156.5t54.5 218.5q0 123 -58.5 228.5t-156.5 162.5q-113 63 -330 64h-49v-897z" />
<glyph unicode="E" horiz-adv-x="946" d="M127 0v1372h739v-237h-485v-334h465v-238h-465v-325h485v-238h-739z" />
<glyph unicode="F" horiz-adv-x="876" d="M127 0v1372h698v-237h-444v-334h424v-238h-424v-563h-254z" />
<glyph unicode="G" horiz-adv-x="1591" d="M66 686q0 293 215 503t516 210q219 0 409.5 -123t255.5 -305h-303q-61 90 -158.5 140t-209.5 50q-207 0 -338 -141q-59 -63 -96.5 -156.5t-37.5 -181.5q0 -199 140.5 -335t345.5 -136q131 0 238.5 67.5t166.5 182.5h-575v237h895q0 -242 -131 -424q-100 -139 -260 -220 t-336 -81q-305 0 -521 208t-216 505z" />
<glyph unicode="H" horiz-adv-x="1251" d="M127 0v1372h254v-559h491v559h254v-1372h-254v575h-491v-575h-254z" />
<glyph unicode="I" horiz-adv-x="505" d="M127 0v1372h254v-1372h-254z" />
<glyph unicode="J" horiz-adv-x="866" d="M0 324h254q25 -113 123 -113q57 0 90 44t33 120v997h254v-981q0 -172 -80 -278q-109 -139 -295 -140q-174 0 -289 125q-43 45 -62.5 94.5t-27.5 131.5z" />
<glyph unicode="K" horiz-adv-x="1099" d="M127 0v1372h254v-594l432 594h299l-518 -674l518 -698h-299l-432 602v-602h-254z" />
<glyph unicode="L" horiz-adv-x="833" d="M127 0v1372h254v-1134h418v-238h-672z" />
<glyph unicode="M" horiz-adv-x="1687" d="M127 0v1372h352l367 -1040l362 1040h353v-1372h-254v1028l-357 -1028h-213l-356 1028v-1028h-254z" />
<glyph unicode="N" horiz-adv-x="1368" d="M127 0v1372h289l571 -999v999h254v-1372h-285l-575 997v-997h-254z" />
<glyph unicode="O" horiz-adv-x="1562" d="M66 694q0 287 211.5 496t506.5 209q297 0 507 -209t210 -504t-210 -504t-507 -209q-301 0 -509.5 209t-208.5 512zM319 690q0 -201 136.5 -340t330.5 -139q190 0 325.5 139t135.5 336t-135 336t-328 139q-190 0 -327.5 -139t-137.5 -332z" />
<glyph unicode="P" horiz-adv-x="1040" d="M127 0v1372h346q147 0 215 -13t131 -54q184 -117 185 -349q0 -113 -49.5 -210t-133.5 -156q-59 -41 -125.5 -53.5t-226.5 -12.5h-88v-524h-254zM381 762h82q115 0 170 20q51 18 84 66.5t33 106t-32 101.5t-85 62q-49 16 -160 17h-92v-373z" />
<glyph unicode="Q" horiz-adv-x="1589" d="M66 688q0 299 210.5 505t514 206t519.5 -208t216 -501q0 -137 -36 -236.5t-128 -213.5q68 -39 147 -39l41 4v-232q-16 -2 -34 -2q-164 0 -324 113q-162 -111 -393 -111q-305 0 -519 209t-214 506zM319 692q0 -39 5 -71q90 25 196 24q219 0 447 -131q129 -76 190 -135 q115 135 115 307q0 197 -140.5 336t-336.5 139q-190 0 -333 -140.5t-143 -328.5zM403 420q152 -209 394 -209q100 0 180 45q-244 182 -453 182q-53 0 -121 -18z" />
<glyph unicode="R" horiz-adv-x="1110" d="M127 0v1372h420q231 0 350 -104q145 -127 145 -320q0 -96 -38.5 -188t-104.5 -150q-78 -70 -215 -102l371 -508h-307l-367 524v-524h-254zM381 717h162q115 0 180 56t65 155q0 94 -66.5 150.5t-176.5 56.5h-164v-418z" />
<glyph unicode="S" horiz-adv-x="993" d="M35 393h266q2 -84 53.5 -134t134.5 -50q80 0 132.5 48t52.5 124q0 74 -42 120t-145 83q-150 55 -197.5 78.5t-90.5 66.5q-115 111 -115 281q0 160 119 274.5t284 114.5q195 0 318 -150q82 -100 88 -239h-262q-6 72 -46 111.5t-105.5 39.5t-103.5 -38t-38 -101 q0 -68 53 -109q45 -37 176 -82q164 -59 236 -126q125 -117 125 -289q0 -182 -125 -307q-139 -135 -320 -136q-104 0 -200.5 45t-157.5 123q-82 107 -90 252z" />
<glyph unicode="T" horiz-adv-x="800" d="M18 1135v237h762v-237h-254v-1135h-254v1135h-254z" />
<glyph unicode="U" horiz-adv-x="1206" d="M113 500v872h254v-872q0 -127 43 -193q63 -98 192 -98q131 0 195 96q43 61 43 195v872h254v-872q0 -225 -95 -342q-145 -186 -393 -187q-125 0 -235.5 55.5t-177.5 149.5q-80 113 -80 324z" />
<glyph unicode="V" horiz-adv-x="1247" d="M-14 1372h268l369 -1044l370 1044h267l-531 -1372h-209z" />
<glyph unicode="W" horiz-adv-x="1705" d="M25 1372h260l239 -958l238 958h184l234 -958l241 958h260l-399 -1372h-203l-223 907l-229 -907h-201z" />
<glyph unicode="X" horiz-adv-x="1218" d="M-14 0l473 684l-473 688h301l321 -479l330 479h295l-475 -688l475 -684h-295l-330 475l-321 -475h-301z" />
<glyph unicode="Y" horiz-adv-x="1130" d="M-14 1372h278l299 -631l299 631h281l-453 -866v-506h-254v506z" />
<glyph unicode="Z" horiz-adv-x="940" d="M45 0v209l526 926h-497v237h792v-221l-520 -913h557v-238h-858z" />
<glyph unicode="[" horiz-adv-x="636" d="M111 213v661q0 264 145 418q51 55 107.5 88t152.5 62v-258q-96 -39 -123 -111q-35 -86 -35 -250v-653q0 -129 37 -215q18 -43 44 -66.5t77 -44.5v-256q-109 25 -182.5 76t-130.5 143q-92 146 -92 406z" />
<glyph unicode="\" horiz-adv-x="849" d="M82 1372h176l639 -1716h-174z" />
<glyph unicode="]" horiz-adv-x="636" d="M121 1186v256q111 -27 183.5 -78t129.5 -143q92 -152 92 -406v-661q0 -260 -145 -418q-90 -96 -260 -148v258q96 39 123 111q35 88 35 250v653q0 127 -37 213q-18 45 -44 69t-77 44z" />
<glyph unicode="^" d="M16 700l336 680h324l336 -680h-258l-240 484l-240 -484h-258z" />
<glyph unicode="_" horiz-adv-x="1024" d="M0 -100h1024v-224h-1024v224z" />
<glyph unicode="`" d="M209 1399l117 160l356 -297l-109 -136z" />
<glyph unicode="a" horiz-adv-x="1261" d="M61 520q0 231 147.5 388t366.5 157q98 0 193.5 -46t153.5 -120v131h227v-1030h-227v127q-20 -27 -82 -70q-133 -92 -277 -92q-217 0 -359.5 157.5t-142.5 397.5zM309 510q0 -135 89 -227.5t216 -92.5q129 0 215 92.5t86 231.5q0 141 -85 232.5t-216 91.5 q-129 0 -217 -94.5t-88 -233.5z" />
<glyph unicode="b" horiz-adv-x="1259" d="M113 0v1372h247v-436q123 129 322 129q215 0 366.5 -161t151.5 -390q0 -231 -147.5 -390t-364.5 -159q-203 0 -348 158v-123h-227zM346 520q0 -139 89 -233t222 -94q127 0 211 92t84 231q0 137 -86 229.5t-215 92.5q-127 0 -216 -92.5t-89 -225.5z" />
<glyph unicode="c" horiz-adv-x="1159" d="M61 520q0 225 161 385t386 160q215 0 375 -150q96 -88 141 -227h-278q-45 82 -101.5 117t-136.5 35q-131 0 -215 -92.5t-84 -231.5t88 -231t221 -92q139 0 228 143h278q-57 -160 -170 -250q-147 -121 -344 -121q-225 0 -387 163t-162 392z" />
<glyph unicode="d" horiz-adv-x="1259" d="M59 514q0 225 153 388t366 163q86 0 174 -35t145 -92v434h248v-1372h-225v125q-147 -160 -355 -160q-205 0 -355.5 163t-150.5 386zM307 518q0 -135 89 -230t216 -95q125 0 215.5 95t90.5 226t-91.5 227.5t-216.5 96.5q-121 0 -212 -95.5t-91 -224.5z" />
<glyph unicode="e" horiz-adv-x="1198" d="M61 514q0 231 159 394t384 163q217 0 375 -159.5t158 -381.5q0 -45 -15 -124h-800q25 -92 103.5 -152.5t172.5 -60.5q147 0 229 133h273q-47 -156 -187.5 -258.5t-308.5 -102.5q-225 0 -384 160t-159 389zM315 604h580q-27 111 -104.5 175.5t-184 64.5t-186.5 -65.5 t-105 -174.5z" />
<glyph unicode="f" horiz-adv-x="577" d="M63 803v227h89q14 160 84 246q96 123 251 123q43 0 70 -2v-240q-90 0 -120.5 -24.5t-37.5 -102.5h144v-227h-144v-803h-247v803h-89z" />
<glyph unicode="g" horiz-adv-x="1271" d="M61 524q0 223 155 382t372 159q219 0 344 -162v127h227v-842q0 -254 -123 -403q-170 -203 -440 -203q-176 0 -316.5 92.5t-201.5 247.5h280q98 -115 252 -115q133 0 222.5 90.5t97.5 233.5q-139 -166 -340 -166q-217 0 -373 164t-156 395zM309 520q0 -139 89 -234.5 t218 -95.5q121 0 208 94.5t87 225.5q0 137 -88 232.5t-215 95.5q-125 0 -212 -92.5t-87 -225.5z" />
<glyph unicode="h" horiz-adv-x="1130" d="M113 0v1372h247v-414q113 106 267 107q90 0 180 -46t143 -122q76 -104 76 -315v-582h-248v526q0 162 -50 237t-159 75q-115 0 -172 -103q-37 -68 -37 -213v-522h-247z" />
<glyph unicode="i" horiz-adv-x="473" d="M113 0v1030h247v-1030h-247zM113 1145v227h247v-227h-247z" />
<glyph unicode="j" horiz-adv-x="473" d="M10 -104q68 10 85.5 36.5t17.5 116.5v981h247v-987q0 -172 -96 -278.5t-254 -108.5v240zM113 1149v223h247v-223h-247z" />
<glyph unicode="k" horiz-adv-x="1011" d="M113 0v1372h247v-827l332 485h285l-371 -504l418 -526h-311l-353 481v-481h-247z" />
<glyph unicode="l" horiz-adv-x="473" d="M113 0v1372h247v-1372h-247z" />
<glyph unicode="m" horiz-adv-x="1763" d="M113 0v1030h227v-88q92 123 272 123q188 0 297 -162q113 162 332 162q229 0 344 -168q74 -102 74 -297v-600h-248v569q0 145 -51 203q-55 66 -143 66q-115 0 -173 -101q-37 -66 -36 -223v-514h-248v569q0 131 -51 197q-55 72 -154 72q-121 0 -166 -109q-29 -70 -29 -215 v-514h-247z" />
<glyph unicode="n" horiz-adv-x="1134" d="M113 0v1030h229v-90q127 125 281 125q90 0 177 -42t140 -112q49 -63 68.5 -142t19.5 -212v-557h-248v508q0 193 -61 262q-53 68 -146 68q-51 0 -99 -27t-73 -70q-41 -68 -41 -252v-489h-247z" />
<glyph unicode="o" horiz-adv-x="1218" d="M61 524q0 219 164 380t387 161q227 0 386 -160t159 -389t-160.5 -390t-390.5 -161q-225 0 -385 164t-160 395zM309 518q0 -137 87 -231t214 -94t213 92t86 227q0 133 -88 229.5t-211 96.5q-121 0 -211 -94.5t-90 -225.5z" />
<glyph unicode="p" horiz-adv-x="1253" d="M113 -344v1374h227v-121q125 156 338 156q219 0 364 -160q150 -162 150 -385q0 -231 -150.5 -393t-365.5 -162q-98 0 -167 29t-149 102v-440h-247zM346 518q0 -137 86 -231t213 -94q125 0 212 94t87 227q0 135 -86 229.5t-209 94.5q-127 0 -215 -93.5t-88 -226.5z" />
<glyph unicode="q" horiz-adv-x="1255" d="M59 524q0 219 155 380t366 161q109 0 187.5 -39t147.5 -127v131h226v-1374h-248v442q-121 -133 -313 -133q-217 0 -369 164t-152 395zM307 518q0 -139 86 -232t215 -93q123 0 211 94t88 227q0 131 -89 227.5t-212 96.5q-125 0 -212 -93.5t-87 -226.5z" />
<glyph unicode="r" horiz-adv-x="600" d="M113 0v1030h227v-92q55 74 102 100.5t121 26.5h21v-242q-92 -4 -150 -47q-74 -59 -74 -198v-578h-247z" />
<glyph unicode="s" horiz-adv-x="831" d="M29 324h252q18 -72 50 -103t85 -31q47 0 78.5 30t31.5 75t-35.5 73.5t-138.5 61.5q-88 29 -120.5 45.5t-71.5 50.5q-94 84 -94 219q0 133 100 226.5t244 93.5q160 0 260 -119q74 -84 75 -196h-241q-16 88 -96 88q-41 0 -69 -25t-28 -63q0 -33 23.5 -54.5t83.5 -40.5 q182 -55 239 -96q117 -84 117 -233.5t-110.5 -255t-266.5 -105.5q-88 0 -170 40t-129 106q-55 76 -69 213z" />
<glyph unicode="t" horiz-adv-x="569" d="M16 803v227h121v342h248v-342h147v-227h-147v-803h-248v803h-121z" />
<glyph unicode="u" horiz-adv-x="1134" d="M106 426v604h248v-526q0 -311 213 -311q100 0 154.5 79.5t54.5 231.5v526h248v-1030h-227v102q-59 -76 -117.5 -106.5t-149.5 -30.5q-172 0 -294 113q-70 63 -100 142t-30 206z" />
<glyph unicode="v" horiz-adv-x="1009" d="M-8 1030h268l250 -684l238 684h270l-416 -1030h-194z" />
<glyph unicode="w" horiz-adv-x="1456" d="M6 1030h264l189 -629l172 629h196l168 -629l191 629h264l-377 -1030h-151l-195 668l-199 -668h-151z" />
<glyph unicode="x" horiz-adv-x="997" d="M-14 0l366 532l-319 498h276l189 -311l188 311h277l-320 -498l371 -532h-295l-221 352l-217 -352h-295z" />
<glyph unicode="y" horiz-adv-x="1028" d="M-8 1030h282l234 -661l248 661h280l-592 -1374h-266l191 440z" />
<glyph unicode="z" horiz-adv-x="847" d="M35 0v223l454 580h-403v227h700v-223l-454 -580h487v-227h-784z" />
<glyph unicode="{" horiz-adv-x="636" d="M45 432v182q111 27 111 166v310q0 156 70 225q63 62 198 62q16 0 33 -1l75 -4h35v-211h-18q-92 0 -123 -24q-20 -16 -25.5 -37t-5.5 -84v-252q0 -119 -45 -180q-23 -31 -88 -70q74 -78 89.5 -98.5t25.5 -44.5q18 -55 18 -129v-230q0 -68 7.5 -89t29.5 -36q27 -20 115 -20 h20v-211h-35l-75 -4q-17 -1 -33 -1q-128 0 -203 73q-66 63 -65 219v303q0 88 -26 130t-85 56z" />
<glyph unicode="|" d="M391 -344v1716h248v-1716h-248z" />
<glyph unicode="}" horiz-adv-x="636" d="M70 -133h18q90 0 121 24q20 16 25.5 37t5.5 84v252q0 119 45 180q23 31 88 70q-74 78 -89.5 98.5t-25.5 44.5q-18 49 -18 129v230q0 66 -6.5 88t-28.5 37q-31 20 -117 20h-18v211h34l74 4q152 10 236 -71q66 -63 65 -220v-303q0 -88 25.5 -130t87.5 -56v-182 q-59 -14 -86 -53t-27 -113v-309q0 -156 -70.5 -225.5t-230.5 -61.5q-25 4 -76 4h-32v211z" />
<glyph unicode="~" horiz-adv-x="1372" d="M186 1251q12 29 17 33q70 139 130 192.5t161 53.5q63 0 215 -57q131 -51 184 -52q49 0 82 23.5t69 87.5l142 -82q-74 -154 -146 -207q-82 -59 -178 -59q-37 0 -84 14t-215 78q-45 16 -86 16q-51 0 -81.5 -26.5t-71.5 -104.5z" />
<glyph unicode="&#xa1;" horiz-adv-x="534" d="M143 -344v1024h248v-1024h-248zM143 795v235h248v-235h-248z" />
<glyph unicode="&#xa2;" d="M72 711q0 154 95 275.5t239 152.5v188h233v-188q119 -31 203 -117t110 -201h-262q-23 39 -72 63.5t-100 24.5q-84 0 -142.5 -59t-58.5 -148q0 -86 58.5 -143t146.5 -57q76 0 158 73h272q-53 -127 -126.5 -197.5t-186.5 -101.5v-202h-233v202q-117 23 -205 117 q-129 136 -129 318z" />
<glyph unicode="&#xa3;" d="M0 575v234h86q-29 74 -29 149q0 178 132.5 309.5t312.5 131.5q246 0 385 -230q53 -90 53 -163h-250q-16 70 -66.5 111.5t-119.5 41.5q-84 0 -141.5 -61.5t-57.5 -153.5q0 -76 51 -135h385v-234h-200l10 -20q47 -96 47 -201q0 -57 -20 -121q76 0 118 25q37 23 61.5 67 t24.5 91q0 29 -16 92h246q18 -33 18 -96q0 -84 -38 -169t-99 -139q-123 -104 -309 -104h-527v233h258q35 61 35 134q0 102 -104 208h-246z" />
<glyph unicode="&#xa4;" horiz-adv-x="1220" d="M82 256l156 156q-92 123 -93 278q0 145 91 273l-150 149l98 96l150 -149q127 92 274 92q158 0 277 -92l155 155l97 -98l-156 -153q90 -127 90 -273q0 -150 -90 -278l152 -152l-99 -96l-149 149q-129 -90 -278.5 -90t-272.5 90l-156 -155zM330 692q0 -125 81 -211t197 -86 q119 0 201 86t82 209q0 119 -83 205t-198 86q-113 0 -196.5 -86t-83.5 -203z" />
<glyph unicode="&#xa5;" d="M-4 1372h248l268 -602l272 602h248l-209 -434h129v-195h-221l-88 -184h268v-194h-274v-365h-248v365h-272v194h266l-88 184h-219v195h127z" />
<glyph unicode="&#xa6;" d="M391 315h248v-659h-248v659zM391 664v708h248v-708h-248z" />
<glyph unicode="&#xa7;" d="M59 643q0 164 150 272q-53 86 -53 175q0 139 103.5 225t268.5 86q170 0 269.5 -90t115.5 -260h-231q-20 123 -170 123q-59 0 -93 -25t-34 -66q0 -68 121 -131l305 -155q158 -82 158 -258q0 -156 -144 -260q92 -94 93 -224q0 -152 -113 -250t-287 -98q-184 0 -302 108.5 t-124 284.5h246q0 -53 14 -82q43 -90 168 -90q70 0 117 35t47 86q0 43 -25.5 70.5t-105.5 68.5l-307 162q-187 100 -187 293zM276 659q0 -61 109 -116l287 -148q76 57 76 121q0 35 -24 59.5t-87 57.5l-283 145q-78 -53 -78 -119z" />
<glyph unicode="&#xa8;" d="M209 1174v247h240v-247h-240zM580 1174v247h239v-247h-239z" />
<glyph unicode="&#xa9;" horiz-adv-x="1613" d="M94 694q0 287 212 496t503 209q293 0 503 -210t210 -503t-210 -503t-503 -210q-299 0 -507 210t-208 511zM176 692q0 -268 185.5 -456.5t447.5 -188.5q258 0 444.5 188.5t186.5 448.5q0 262 -186.5 451.5t-444.5 189.5t-445.5 -188.5t-187.5 -444.5zM350 702 q0 174 136.5 300t324.5 126q168 0 295 -96q86 -63 131 -166h-199q-100 109 -231 109q-113 0 -197 -82t-84 -192.5t85 -193.5t200 -83t219 102h203q-51 -117 -165 -186.5t-253 -69.5q-190 0 -327.5 128t-137.5 304z" />
<glyph unicode="&#xaa;" horiz-adv-x="841" d="M49 862q0 139 96.5 233.5t239.5 94.5q117 0 215 -86v65h158v-620h-158v65q-109 -86 -223 -86q-141 0 -234.5 95.5t-93.5 238.5zM221 858q0 -76 55.5 -129t133.5 -53q80 0 133 53t53 131q0 82 -52 133t-134 51q-80 0 -134.5 -54t-54.5 -132z" />
<glyph unicode="&#xab;" horiz-adv-x="792" d="M76 436v187l258 241v-229l-125 -105l125 -108v-229zM444 436v187l258 241v-229l-124 -105l124 -108v-229z" />
<glyph unicode="&#xac;" d="M70 319v232h893v-551h-248v319h-645z" />
<glyph unicode="&#xad;" horiz-adv-x="514" d="M0 426v207h514v-207h-514z" />
<glyph unicode="&#xae;" horiz-adv-x="1613" d="M94 694q0 287 212 496t503 209q293 0 503 -210t210 -503t-210 -503t-503 -210q-299 0 -507 210t-208 511zM176 692q0 -268 185.5 -456.5t447.5 -188.5q258 0 444.5 188.5t186.5 448.5q0 262 -186.5 451.5t-444.5 189.5t-445.5 -188.5t-187.5 -444.5zM535 289v823h276 q150 0 227 -63q96 -78 97 -195q0 -100 -59.5 -169t-166.5 -95l240 -301h-213l-225 295v-295h-176zM711 725h96q70 0 110.5 31.5t40.5 87.5q0 51 -40.5 82.5t-108.5 31.5h-98v-233z" />
<glyph unicode="&#xaf;" d="M207 1202v164h631v-164h-631z" />
<glyph unicode="&#xb0;" horiz-adv-x="788" d="M96 1112q0 117 88 202t209 85q125 0 212 -85t87 -206t-88 -207t-209 -86q-125 0 -212 86t-87 211zM229 1110q0 -70 48.5 -117t117.5 -47q68 0 116 48t48 114t-48 113t-118 47q-66 0 -115 -47.5t-49 -110.5z" />
<glyph unicode="&#xb1;" d="M76 0v184h878v-184h-878zM76 594v184h346v348h184v-348h348v-184h-348v-346h-184v346h-346z" />
<glyph unicode="&#xb2;" horiz-adv-x="698" d="M51 1112q0 117 85 197t210 80t211 -80t86 -195q0 -137 -172 -278l-164 -136h336v-151h-582v147l316 271q94 82 94 155q0 51 -34 83t-87 32q-74 0 -110 -66q-14 -29 -15 -92h-172q-2 15 -2 33z" />
<glyph unicode="&#xb3;" horiz-adv-x="698" d="M29 807h172q4 -53 42 -88t93 -35q53 0 93 37t40 88q0 57 -45 92t-123 35h-33v151h35q47 0 75 21.5t28 58.5q0 31 -22 50.5t-54 19.5q-59 0 -68 -74h-172q8 96 64 152q74 74 178 74q100 0 173 -67t73 -159t-70 -141q63 -27 98 -83t35 -128q0 -119 -89 -199t-220 -80 q-125 0 -212 79t-91 196z" />
<glyph unicode="&#xb4;" d="M346 1262l356 297l117 -160l-366 -273z" />
<glyph unicode="&#xb5;" d="M59 -354v1343h248v-528q0 -100 14.5 -151.5t53.5 -88.5q59 -59 143 -59q92 0 150 74q55 74 55 233v520h248v-989h-248v125q-74 -147 -211 -148q-127 0 -205 132v-463h-248z" />
<glyph unicode="&#xb6;" d="M41 1008q0 215 143 307q90 57 260 57h504v-158h-104v-1407h-168v1407h-141v-1407h-168v850h-23q-135 0 -219 97.5t-84 253.5z" />
<glyph unicode="&#xb7;" horiz-adv-x="481" d="M117 406v247h248v-247h-248z" />
<glyph unicode="&#xb8;" d="M379 -309h110q25 -55 74 -56q33 0 54.5 25t21.5 59q0 33 -21.5 55.5t-50.5 22.5q-39 0 -71 -45l-101 49l88 199h86l-47 -109q35 14 56 15q70 0 122 -55.5t52 -131.5q0 -78 -53.5 -132t-131.5 -54q-72 0 -126 44t-62 114z" />
<glyph unicode="&#xb9;" horiz-adv-x="698" d="M182 1221v151h283v-823h-172v672h-111z" />
<glyph unicode="&#xba;" horiz-adv-x="815" d="M49 864q0 133 106.5 230.5t254 97.5t251 -97.5t103.5 -234.5q0 -139 -105.5 -235.5t-255.5 -96.5q-145 0 -249.5 98.5t-104.5 237.5zM221 862q0 -78 53.5 -132t133.5 -54q78 0 131 53t53 129t-54.5 131t-130 55t-131 -54t-55.5 -128z" />
<glyph unicode="&#xbb;" horiz-adv-x="792" d="M90 193v229l125 108l-125 105v229l258 -241v-187zM459 193v229l125 108l-125 105v229l258 -241v-187z" />
<glyph unicode="&#xbc;" horiz-adv-x="1708" d="M182 1221v151h283v-823h-172v672h-111zM492 0l569 1372h153l-567 -1372h-155zM1024 121v129l408 573h143v-551h94v-151h-94v-121h-172v121h-379zM1208 266h201v293z" />
<glyph unicode="&#xbd;" horiz-adv-x="1708" d="M182 1221v151h283v-823h-172v672h-111zM492 0l569 1372h153l-567 -1372h-155zM1059 563q0 117 86 197t211 80t211 -80t86 -195q0 -137 -172 -278l-164 -135h336v-152h-584v147l317 271q94 82 95 155q0 51 -34 83t-87 32q-76 0 -113 -65q-14 -25 -14 -93h-172q-2 15 -2 33 z" />
<glyph unicode="&#xbe;" horiz-adv-x="1708" d="M29 807h172q4 -53 42 -88t93 -35q53 0 93 37t40 88q0 57 -45 92t-123 35h-33v151h35q47 0 75 21.5t28 58.5q0 31 -22 50.5t-54 19.5q-59 0 -68 -74h-172q8 96 64 152q74 74 178 74q100 0 173 -67t73 -159t-70 -141q63 -27 98 -83t35 -128q0 -119 -89 -199t-220 -80 q-125 0 -212 79t-91 196zM492 0l567 1372h155l-569 -1372h-153zM1024 121v129l408 573h143v-551h92v-151h-92v-121h-172v121h-379zM1208 266h201v293z" />
<glyph unicode="&#xbf;" horiz-adv-x="933" d="M66 61q0 88 43 164t143 164q72 61 96.5 108.5t24.5 120.5q0 31 -2 64h245q2 -23 2 -53q0 -143 -67 -260q-25 -41 -48.5 -63.5t-109.5 -94.5q-80 -68 -80 -158q0 -80 47.5 -128t126.5 -48q90 0 140 68q20 27 32 114h248q-14 -172 -90 -268q-57 -72 -150.5 -117t-187.5 -45 q-172 0 -292.5 126t-120.5 306zM371 782v248h247v-248h-247z" />
<glyph unicode="&#xc0;" horiz-adv-x="1341" d="M-2 0l571 1372h199l575 -1372h-280l-145 354h-488l-151 -354h-281zM264 1692l96 188l418 -248l-90 -164zM522 592h295l-147 422z" />
<glyph unicode="&#xc1;" horiz-adv-x="1341" d="M-2 0l571 1372h199l575 -1372h-280l-145 354h-488l-151 -354h-281zM522 592h295l-147 422zM559 1632l418 248l96 -188l-424 -224z" />
<glyph unicode="&#xc2;" horiz-adv-x="1341" d="M-2 0l571 1372h199l575 -1372h-280l-145 354h-488l-151 -354h-281zM313 1503l252 256h228l256 -256h-271l-98 119l-98 -119h-269zM522 592h295l-147 422z" />
<glyph unicode="&#xc3;" horiz-adv-x="1341" d="M-2 0l571 1372h199l575 -1372h-280l-145 354h-488l-151 -354h-281zM350 1655q82 86 201 86q61 0 147 -29q72 -25 119 -24q84 0 148 65l79 -154q-92 -98 -198 -98q-43 0 -189 43q-55 16 -77 17q-74 0 -150 -68zM522 592h295l-147 422z" />
<glyph unicode="&#xc4;" horiz-adv-x="1341" d="M-2 0l571 1372h199l575 -1372h-280l-145 354h-488l-151 -354h-281zM362 1516v247h248v-247h-248zM522 592h295l-147 422zM745 1516v247h248v-247h-248z" />
<glyph unicode="&#xc5;" horiz-adv-x="1341" d="M-2 0l571 1372h199l575 -1372h-280l-145 354h-488l-151 -354h-281zM465 1681q0 86 62.5 147.5t150.5 61.5t149.5 -61.5t61.5 -149.5t-61.5 -149.5t-149.5 -61.5t-150.5 62.5t-62.5 150.5zM522 592h295l-147 422zM596 1681q0 -37 23.5 -61.5t58.5 -24.5q33 0 56.5 25 t23.5 59.5t-23.5 59t-56.5 24.5t-57.5 -24.5t-24.5 -57.5z" />
<glyph unicode="&#xc6;" horiz-adv-x="1572" d="M-47 0l907 1372h633v-237h-410v-334h390v-238h-390v-325h410v-238h-664v354h-364l-213 -354h-299zM616 592h213v362z" />
<glyph unicode="&#xc7;" horiz-adv-x="1456" d="M66 690q0 293 208.5 501t501.5 208q254 0 451 -160q74 -59 115.5 -114.5t80.5 -143.5h-288q-156 180 -369 180q-180 0 -313.5 -141t-133.5 -332q0 -193 136.5 -336t320.5 -143q98 0 177 39t167 133h295q-72 -182 -256 -298q-178 -112 -377 -112h-14l-37 -77q37 14 60 14 q72 0 127 -59.5t55 -137.5q0 -82 -58.5 -141t-140.5 -59t-136 47t-63 127h113q23 -63 84 -64q35 0 57.5 25.5t22.5 64.5q0 35 -21.5 57.5t-54.5 22.5q-47 0 -78 -49l-106 53l80 185q-123 29 -177.5 51t-117.5 67q-150 106 -230.5 262t-80.5 330z" />
<glyph unicode="&#xc8;" horiz-adv-x="946" d="M127 0v1372h739v-237h-485v-334h465v-238h-465v-325h485v-238h-739zM143 1692l97 188l417 -248l-90 -164z" />
<glyph unicode="&#xc9;" horiz-adv-x="946" d="M127 0v1372h739v-237h-485v-334h465v-238h-465v-325h485v-238h-739zM377 1632l418 248l96 -188l-424 -224z" />
<glyph unicode="&#xca;" horiz-adv-x="946" d="M127 0v1372h739v-237h-485v-334h465v-238h-465v-325h485v-238h-739zM133 1503l252 256h227l256 -256h-270l-98 119l-99 -119h-268z" />
<glyph unicode="&#xcb;" horiz-adv-x="946" d="M127 0v1372h739v-237h-485v-334h465v-238h-465v-325h485v-238h-739zM186 1516v247h248v-247h-248zM569 1516v247h248v-247h-248z" />
<glyph unicode="&#xcc;" horiz-adv-x="505" d="M-100 1698l110 174l363 -246l-97 -158zM127 0v1372h254v-1372h-254z" />
<glyph unicode="&#xcd;" horiz-adv-x="505" d="M127 0v1372h254v-1372h-254zM147 1626l365 246l111 -174l-377 -230z" />
<glyph unicode="&#xce;" horiz-adv-x="505" d="M-84 1503l225 256h228l227 -256h-262l-80 133l-76 -133h-262zM125 0v1372h254v-1372h-254z" />
<glyph unicode="&#xcf;" horiz-adv-x="505" d="M-25 1516v247h234v-247h-234zM127 0v1372h254v-1372h-254zM311 1516v247h234v-247h-234z" />
<glyph unicode="&#xd0;" horiz-adv-x="1292" d="M-4 584v213h131v575h311q311 0 486 -104q137 -82 221 -242t84 -342q0 -195 -93.5 -359.5t-248.5 -242.5q-164 -82 -443 -82h-317v584h-131zM381 238h53q221 0 336 67q96 57 150.5 156.5t54.5 218.5q0 125 -57.5 229.5t-157.5 161.5q-113 63 -330 64h-49v-338h328v-213 h-328v-346z" />
<glyph unicode="&#xd1;" horiz-adv-x="1368" d="M127 0v1372h289l571 -999v999h254v-1372h-285l-575 997v-997h-254zM371 1655q82 86 200 86q61 0 148 -29q72 -25 119 -24q84 0 147 65l80 -154q-92 -98 -199 -98q-43 0 -188 43q-55 16 -78 17q-74 0 -149 -68z" />
<glyph unicode="&#xd2;" horiz-adv-x="1562" d="M66 694q0 287 211.5 496t506.5 209q297 0 507 -209t210 -504t-210 -504t-507 -209q-301 0 -509.5 209t-208.5 512zM319 690q0 -201 136.5 -340t330.5 -139q190 0 325.5 139t135.5 336t-135 336t-328 139q-190 0 -327.5 -139t-137.5 -332zM375 1692l96 188l418 -248 l-90 -164z" />
<glyph unicode="&#xd3;" horiz-adv-x="1562" d="M66 694q0 287 211.5 496t506.5 209q297 0 507 -209t210 -504t-210 -504t-507 -209q-301 0 -509.5 209t-208.5 512zM319 690q0 -201 136.5 -340t330.5 -139q190 0 325.5 139t135.5 336t-135 336t-328 139q-190 0 -327.5 -139t-137.5 -332zM678 1632l418 248l96 -188 l-424 -224z" />
<glyph unicode="&#xd4;" horiz-adv-x="1562" d="M66 694q0 287 211.5 496t506.5 209q297 0 507 -209t210 -504t-210 -504t-507 -209q-301 0 -509.5 209t-208.5 512zM319 690q0 -201 136.5 -340t330.5 -139q190 0 325.5 139t135.5 336t-135 336t-328 139q-190 0 -327.5 -139t-137.5 -332zM426 1503l252 256h227l256 -256 h-270l-98 119l-99 -119h-268z" />
<glyph unicode="&#xd5;" horiz-adv-x="1562" d="M66 694q0 287 211.5 496t506.5 209q297 0 507 -209t210 -504t-210 -504t-507 -209q-301 0 -509.5 209t-208.5 512zM319 690q0 -201 136.5 -340t330.5 -139q190 0 325.5 139t135.5 336t-135 336t-328 139q-190 0 -327.5 -139t-137.5 -332zM469 1655q82 86 201 86 q61 0 147 -29q72 -25 119 -24q84 0 147 65l80 -154q-92 -98 -198 -98q-43 0 -189 43q-55 16 -78 17q-74 0 -149 -68z" />
<glyph unicode="&#xd6;" horiz-adv-x="1562" d="M66 694q0 287 211.5 496t506.5 209q297 0 507 -209t210 -504t-210 -504t-507 -209q-301 0 -509.5 209t-208.5 512zM319 690q0 -201 136.5 -340t330.5 -139q190 0 325.5 139t135.5 336t-135 336t-328 139q-190 0 -327.5 -139t-137.5 -332zM473 1516v247h248v-247h-248z M856 1516v247h248v-247h-248z" />
<glyph unicode="&#xd7;" d="M115 416l270 270l-270 270l129 129l272 -270l268 270l129 -127l-268 -274l268 -268l-129 -129l-270 272l-270 -270z" />
<glyph unicode="&#xd8;" horiz-adv-x="1562" d="M66 688q0 291 209.5 501t500.5 210q145 0 332 -74l139 188l164 -127l-133 -178q131 -160 177 -268.5t46 -251.5q0 -297 -211 -506t-512 -209q-166 0 -307 74l-129 -178l-164 127l123 168q-109 86 -172 226t-63 298zM319 688.5q0 -196.5 123 -319.5l523 749 q-78 43 -177 43q-195 0 -332 -138t-137 -334.5zM610 244q90 -33 172 -33q193 0 329 139t136 334q0 186 -114 313z" />
<glyph unicode="&#xd9;" horiz-adv-x="1206" d="M113 500v872h254v-872q0 -127 43 -193q63 -98 192 -98q131 0 195 96q43 61 43 195v872h254v-872q0 -225 -95 -342q-145 -186 -393 -187q-125 0 -235.5 55.5t-177.5 149.5q-80 113 -80 324zM217 1692l96 188l418 -248l-90 -164z" />
<glyph unicode="&#xda;" horiz-adv-x="1206" d="M113 500v872h254v-872q0 -127 43 -193q63 -98 192 -98q131 0 195 96q43 61 43 195v872h254v-872q0 -225 -95 -342q-145 -186 -393 -187q-125 0 -235.5 55.5t-177.5 149.5q-80 113 -80 324zM504 1632l418 248l96 -188l-424 -224z" />
<glyph unicode="&#xdb;" horiz-adv-x="1206" d="M113 500v872h254v-872q0 -127 43 -193q63 -98 192 -98q131 0 195 96q43 61 43 195v872h254v-872q0 -225 -95 -342q-145 -186 -393 -187q-125 0 -235.5 55.5t-177.5 149.5q-80 113 -80 324zM254 1503l252 256h227l256 -256h-270l-98 119l-99 -119h-268z" />
<glyph unicode="&#xdc;" horiz-adv-x="1206" d="M113 500v872h254v-872q0 -127 43 -193q63 -98 192 -98q131 0 195 96q43 61 43 195v872h254v-872q0 -225 -95 -342q-145 -186 -393 -187q-125 0 -235.5 55.5t-177.5 149.5q-80 113 -80 324zM301 1516v247h248v-247h-248zM684 1516v247h248v-247h-248z" />
<glyph unicode="&#xdd;" horiz-adv-x="1130" d="M-14 1372h278l299 -631l299 631h281l-453 -866v-506h-254v506zM473 1632l418 248l96 -188l-424 -224z" />
<glyph unicode="&#xde;" horiz-adv-x="1044" d="M127 0v1372h254v-192h92q145 0 214 -14.5t132 -55.5q86 -59 135.5 -152.5t49.5 -200t-49.5 -203.5t-133.5 -157q-100 -70 -352 -69h-88v-328h-254zM381 575h82q115 0 170 19q51 16 84 62t33 100q0 55 -32 98t-85 61q-49 16 -160 17h-92v-357z" />
<glyph unicode="&#xdf;" horiz-adv-x="1159" d="M106 905q0 172 64 289q51 94 147.5 150.5t206.5 56.5q168 0 284 -112.5t116 -276.5q0 -182 -123 -254q143 -35 220 -128t77 -233q0 -188 -123 -310t-316 -122q-223 0 -325 170v-135h-228v905zM354 352h160q12 -70 60.5 -114.5t109.5 -44.5q70 0 118 53t48 131 q0 123 -105 176q-68 33 -231 33h-22v219h22q68 0 115 55t47 135q0 82 -43 130t-115 48q-164 0 -164 -239v-582z" />
<glyph unicode="&#xe0;" horiz-adv-x="1261" d="M61 520q0 231 147.5 388t366.5 157q98 0 193.5 -46t153.5 -120v131h227v-1030h-227v127q-20 -27 -82 -70q-133 -92 -277 -92q-217 0 -359.5 157.5t-142.5 397.5zM309 510q0 -135 89 -227.5t216 -92.5q129 0 215 92.5t86 231.5q0 141 -85 232.5t-216 91.5 q-129 0 -217 -94.5t-88 -233.5zM319 1399l117 160l357 -297l-109 -136z" />
<glyph unicode="&#xe1;" horiz-adv-x="1261" d="M61 520q0 231 147.5 388t366.5 157q98 0 193.5 -46t153.5 -120v131h227v-1030h-227v127q-20 -27 -82 -70q-133 -92 -277 -92q-217 0 -359.5 157.5t-142.5 397.5zM309 510q0 -135 89 -227.5t216 -92.5q129 0 215 92.5t86 231.5q0 141 -85 232.5t-216 91.5 q-129 0 -217 -94.5t-88 -233.5zM483 1262l357 297l116 -160l-366 -273z" />
<glyph unicode="&#xe2;" horiz-adv-x="1261" d="M61 520q0 231 147.5 388t366.5 157q98 0 193.5 -46t153.5 -120v131h227v-1030h-227v127q-20 -27 -82 -70q-133 -92 -277 -92q-217 0 -359.5 157.5t-142.5 397.5zM301 1167l242 271h221l237 -271h-249l-99 133l-104 -133h-248zM309 510q0 -135 89 -227.5t216 -92.5 q129 0 215 92.5t86 231.5q0 141 -85 232.5t-216 91.5q-129 0 -217 -94.5t-88 -233.5z" />
<glyph unicode="&#xe3;" horiz-adv-x="1261" d="M61 520q0 231 147.5 388t366.5 157q98 0 193.5 -46t153.5 -120v131h227v-1030h-227v127q-20 -27 -82 -70q-133 -92 -277 -92q-217 0 -359.5 157.5t-142.5 397.5zM309 510q0 -135 89 -227.5t216 -92.5q129 0 215 92.5t86 231.5q0 141 -85 232.5t-216 91.5 q-129 0 -217 -94.5t-88 -233.5zM336 1327q49 47 87 63.5t93 16.5q78 0 152 -25q55 -18 114 -18q78 0 136 55l77 -149q-72 -84 -196 -84q-33 0 -170 35q-68 16 -92 16q-66 0 -119 -55z" />
<glyph unicode="&#xe4;" horiz-adv-x="1261" d="M61 520q0 231 147.5 388t366.5 157q98 0 193.5 -46t153.5 -120v131h227v-1030h-227v127q-20 -27 -82 -70q-133 -92 -277 -92q-217 0 -359.5 157.5t-142.5 397.5zM309 510q0 -135 89 -227.5t216 -92.5q129 0 215 92.5t86 231.5q0 141 -85 232.5t-216 91.5 q-129 0 -217 -94.5t-88 -233.5zM348 1174v247h240v-247h-240zM719 1174v247h239v-247h-239z" />
<glyph unicode="&#xe5;" horiz-adv-x="1261" d="M61 520q0 231 147.5 388t366.5 157q98 0 193.5 -46t153.5 -120v131h227v-1030h-227v127q-20 -27 -82 -70q-133 -92 -277 -92q-217 0 -359.5 157.5t-142.5 397.5zM309 510q0 -135 89 -227.5t216 -92.5q129 0 215 92.5t86 231.5q0 141 -85 232.5t-216 91.5 q-129 0 -217 -94.5t-88 -233.5zM446 1346q0 82 61.5 142t145.5 60t144.5 -60.5t60.5 -144t-60.5 -144t-144.5 -60.5q-86 0 -146.5 60.5t-60.5 146.5zM569 1346q0 -37 24.5 -63t59.5 -26q33 0 57.5 26t24.5 60.5t-24.5 60.5t-57.5 26q-35 0 -59.5 -24.5t-24.5 -59.5z" />
<glyph unicode="&#xe6;" horiz-adv-x="2023" d="M61 516q0 225 159 387t382 162q178 0 307 -129v94h228v-94q121 129 307 129q211 0 365.5 -157.5t154.5 -372.5q0 -53 -16 -129h-799q31 -96 105.5 -154.5t168.5 -58.5q143 0 236 133h268q-25 -82 -86 -154q-174 -207 -407 -207q-197 0 -297 137v-102h-228v102 q-111 -137 -311 -137q-221 0 -379 163t-158 388zM309 524q0 -139 86 -235t209 -96q125 0 212 94t87 231q0 133 -87 226.5t-210 93.5q-121 0 -209 -93.5t-88 -220.5zM1145 604h563q-27 92 -68 139q-82 94 -211 94.5t-215 -96.5q-42 -45 -69 -137z" />
<glyph unicode="&#xe7;" horiz-adv-x="1159" d="M61 520q0 225 161 385t386 160q215 0 375 -150q96 -88 141 -227h-278q-45 82 -101.5 117t-136.5 35q-131 0 -215 -92.5t-84 -231.5t88 -231t221 -92q139 0 228 143h278q-70 -193 -219 -285q-135 -86 -289 -86h-24l-33 -74q35 14 55 15q70 0 122 -55.5t52 -131.5 q0 -78 -53 -132t-131 -54q-72 0 -126 44t-62 114h110q25 -55 74 -56q33 0 54.5 25t21.5 59q0 33 -21.5 55.5t-50.5 22.5q-39 0 -74 -45l-100 49l78 174q-203 45 -325 194.5t-122 350.5z" />
<glyph unicode="&#xe8;" horiz-adv-x="1198" d="M61 514q0 231 159 394t384 163q217 0 375 -159.5t158 -381.5q0 -45 -15 -124h-800q25 -92 103.5 -152.5t172.5 -60.5q147 0 229 133h273q-47 -156 -187.5 -258.5t-308.5 -102.5q-225 0 -384 160t-159 389zM266 1399l117 160l356 -297l-108 -136zM315 604h580 q-27 111 -104.5 175.5t-184 64.5t-186.5 -65.5t-105 -174.5z" />
<glyph unicode="&#xe9;" horiz-adv-x="1198" d="M61 514q0 231 159 394t384 163q217 0 375 -159.5t158 -381.5q0 -45 -15 -124h-800q25 -92 103.5 -152.5t172.5 -60.5q147 0 229 133h273q-47 -156 -187.5 -258.5t-308.5 -102.5q-225 0 -384 160t-159 389zM315 604h580q-27 111 -104.5 175.5t-184 64.5t-186.5 -65.5 t-105 -174.5zM494 1262l356 297l117 -160l-367 -273z" />
<glyph unicode="&#xea;" horiz-adv-x="1198" d="M61 514q0 231 159 394t384 163q217 0 375 -159.5t158 -381.5q0 -45 -15 -124h-800q25 -92 103.5 -152.5t172.5 -60.5q147 0 229 133h273q-47 -156 -187.5 -258.5t-308.5 -102.5q-225 0 -384 160t-159 389zM276 1167l242 271h221l238 -271h-250l-98 133l-105 -133h-248z M315 604h580q-27 111 -104.5 175.5t-184 64.5t-186.5 -65.5t-105 -174.5z" />
<glyph unicode="&#xeb;" horiz-adv-x="1198" d="M61 514q0 231 159 394t384 163q217 0 375 -159.5t158 -381.5q0 -45 -15 -124h-800q25 -92 103.5 -152.5t172.5 -60.5q147 0 229 133h273q-47 -156 -187.5 -258.5t-308.5 -102.5q-225 0 -384 160t-159 389zM315 604h580q-27 111 -104.5 175.5t-184 64.5t-186.5 -65.5 t-105 -174.5zM315 1174v247h240v-247h-240zM686 1174v247h240v-247h-240z" />
<glyph unicode="&#xec;" horiz-adv-x="473" d="M-76 1372l117 158l321 -268l-106 -136zM113 0v1030h247v-1030h-247z" />
<glyph unicode="&#xed;" horiz-adv-x="473" d="M113 0v1030h247v-1030h-247zM131 1262l322 268l116 -158l-331 -246z" />
<glyph unicode="&#xee;" horiz-adv-x="473" d="M-74 1167l207 271h221l203 -271h-242l-71 133l-76 -133h-242zM111 0v1030h247v-1030h-247z" />
<glyph unicode="&#xef;" horiz-adv-x="473" d="M-25 1174v247h220v-247h-220zM113 0v1030h247v-1030h-247zM291 1174v247h219v-247h-219z" />
<glyph unicode="&#xf0;" horiz-adv-x="1218" d="M61 512q0 223 149.5 373.5t371.5 150.5q49 0 133 -24l-35 61l-35 53l-2 4q-4 6 -8 13.5t-8 13.5l-127 -61l-80 112l129 64q-29 33 -31 35l-17 22q-9 12 -14.5 17.5t-5.5 7.5l-28 24l145 86l27 -26l53 -49l33 -35l139 69l84 -112l-139 -72q164 -211 225 -315 q137 -233 137 -426q0 -219 -161.5 -376t-391.5 -157q-227 0 -385 159t-158 388zM309 516q0 -137 87 -230t214 -93t213 89t86 220q0 129 -88 223t-211 94t-212 -90t-89 -213z" />
<glyph unicode="&#xf1;" horiz-adv-x="1134" d="M113 0v1030h229v-90q127 125 281 125q90 0 177 -42t140 -112q49 -63 68.5 -142t19.5 -212v-557h-248v508q0 193 -61 262q-53 68 -146 68q-51 0 -99 -27t-73 -70q-41 -68 -41 -252v-489h-247zM260 1327q49 47 87 63.5t93 16.5q78 0 152 -25q55 -18 115 -18q78 0 135 55 l78 -149q-72 -84 -197 -84q-33 0 -170 35q-68 16 -92 16q-66 0 -119 -55z" />
<glyph unicode="&#xf2;" horiz-adv-x="1218" d="M61 524q0 219 164 380t387 161q227 0 386 -160t159 -389t-160.5 -390t-390.5 -161q-225 0 -385 164t-160 395zM262 1399l117 160l356 -297l-108 -136zM309 518q0 -137 87 -231t214 -94t213 92t86 227q0 133 -88 229.5t-211 96.5q-121 0 -211 -94.5t-90 -225.5z" />
<glyph unicode="&#xf3;" horiz-adv-x="1218" d="M61 524q0 219 164 380t387 161q227 0 386 -160t159 -389t-160.5 -390t-390.5 -161q-225 0 -385 164t-160 395zM309 518q0 -137 87 -231t214 -94t213 92t86 227q0 133 -88 229.5t-211 96.5q-121 0 -211 -94.5t-90 -225.5zM496 1262l356 297l117 -160l-367 -273z" />
<glyph unicode="&#xf4;" horiz-adv-x="1218" d="M61 524q0 219 164 380t387 161q227 0 386 -160t159 -389t-160.5 -390t-390.5 -161q-225 0 -385 164t-160 395zM272 1167l242 271h221l238 -271h-250l-98 133l-105 -133h-248zM309 518q0 -137 87 -231t214 -94t213 92t86 227q0 133 -88 229.5t-211 96.5q-121 0 -211 -94.5 t-90 -225.5z" />
<glyph unicode="&#xf5;" horiz-adv-x="1218" d="M61 524q0 219 164 380t387 161q227 0 386 -160t159 -389t-160.5 -390t-390.5 -161q-225 0 -385 164t-160 395zM309 518q0 -137 87 -231t214 -94t213 92t86 227q0 133 -88 229.5t-211 96.5q-121 0 -211 -94.5t-90 -225.5zM319 1327q49 47 87 63.5t94 16.5q78 0 151 -25 q55 -18 115 -18q78 0 135 55l78 -149q-72 -84 -197 -84q-33 0 -170 35q-68 16 -92 16q-66 0 -119 -55z" />
<glyph unicode="&#xf6;" horiz-adv-x="1218" d="M61 524q0 219 164 380t387 161q227 0 386 -160t159 -389t-160.5 -390t-390.5 -161q-225 0 -385 164t-160 395zM309 518q0 -137 87 -231t214 -94t213 92t86 227q0 133 -88 229.5t-211 96.5q-121 0 -211 -94.5t-90 -225.5zM317 1174v247h240v-247h-240zM688 1174v247h240 v-247h-240z" />
<glyph unicode="&#xf7;" d="M76 614v185h878v-185h-878zM401 272v220h228v-220h-228zM401 924v219h228v-219h-228z" />
<glyph unicode="&#xf8;" horiz-adv-x="1218" d="M61 518q0 227 164 387t396 160q121 0 217 -53l84 127l145 -99l-84 -127q174 -141 174 -401q0 -227 -161.5 -387t-391.5 -160q-117 0 -229 55l-96 -120l-140 102l86 123q-76 70 -120 175t-44 218zM309 512q0 -111 60 -188l333 493q-41 20 -83 21q-129 0 -219.5 -94.5 t-90.5 -231.5zM506 213q59 -20 104 -20q125 0 212 92t87 225q0 96 -61 203z" />
<glyph unicode="&#xf9;" horiz-adv-x="1134" d="M106 426v604h248v-526q0 -311 213 -311q100 0 154.5 79.5t54.5 231.5v526h248v-1030h-227v102q-59 -76 -117.5 -106.5t-149.5 -30.5q-172 0 -294 113q-70 63 -100 142t-30 206zM223 1399l117 160l356 -297l-108 -136z" />
<glyph unicode="&#xfa;" horiz-adv-x="1134" d="M106 426v604h248v-526q0 -311 213 -311q100 0 154.5 79.5t54.5 231.5v526h248v-1030h-227v102q-59 -76 -117.5 -106.5t-149.5 -30.5q-172 0 -294 113q-70 63 -100 142t-30 206zM463 1262l356 297l117 -160l-367 -273z" />
<glyph unicode="&#xfb;" horiz-adv-x="1134" d="M106 426v604h248v-526q0 -311 213 -311q100 0 154.5 79.5t54.5 231.5v526h248v-1030h-227v102q-59 -76 -117.5 -106.5t-149.5 -30.5q-172 0 -294 113q-70 63 -100 142t-30 206zM231 1167l242 271h221l238 -271h-250l-98 133l-105 -133h-248z" />
<glyph unicode="&#xfc;" horiz-adv-x="1134" d="M106 426v604h248v-526q0 -311 213 -311q100 0 154.5 79.5t54.5 231.5v526h248v-1030h-227v102q-59 -76 -117.5 -106.5t-149.5 -30.5q-172 0 -294 113q-70 63 -100 142t-30 206zM272 1174v247h240v-247h-240zM643 1174v247h240v-247h-240z" />
<glyph unicode="&#xfd;" horiz-adv-x="1028" d="M-8 1030h282l234 -661l248 661h280l-592 -1374h-266l191 440zM408 1262l356 297l117 -160l-367 -273z" />
<glyph unicode="&#xfe;" horiz-adv-x="1253" d="M113 -344v1716h227v-477q70 90 147.5 130t188.5 40q221 0 366 -160q150 -162 150 -385q0 -233 -150.5 -394t-367.5 -161q-100 0 -171 33t-143 113v-455h-247zM346 518q0 -133 86 -223t213 -90q125 0 212 91t87 218q0 129 -87 220t-208 91q-127 0 -215 -90t-88 -217z" />
<glyph unicode="&#xff;" horiz-adv-x="1028" d="M-8 1030h282l234 -661l248 661h280l-592 -1374h-266l191 440zM223 1174v247h240v-247h-240zM594 1174v247h240v-247h-240z" />
<glyph unicode="&#x152;" horiz-adv-x="1945" d="M66 686q0 299 199.5 507t488.5 208q135 0 255.5 -48t192.5 -130v149h662v-237h-408v-334h387v-238h-387v-325h408v-238h-662v147q-70 -78 -193.5 -126t-254.5 -48q-287 0 -487.5 208t-200.5 505zM319 690q0 -201 129.5 -340t315.5 -139t317 136t131 331q0 201 -132 343 t-318 142q-180 0 -311.5 -139t-131.5 -334z" />
<glyph unicode="&#x153;" horiz-adv-x="2015" d="M61 516q0 225 160 387t383 162q250 0 410 -213q94 115 185 164t214 49q225 0 383 -154.5t158 -375.5q0 -68 -10 -129h-797q35 -98 107.5 -155.5t166.5 -57.5q63 0 131 37.5t103 95.5h264q-51 -158 -191.5 -259.5t-306.5 -101.5q-125 0 -232.5 57.5t-174.5 159.5 q-53 -82 -115 -127q-123 -90 -299 -90q-223 0 -381 161t-158 390zM309 522q0 -137 87 -233t212 -96t212 94t87 227t-88 228.5t-211 95.5t-211 -93.5t-88 -222.5zM1141 604h559q-25 106 -100.5 170t-180.5 64q-102 0 -173.5 -60.5t-104.5 -173.5z" />
<glyph unicode="&#x178;" horiz-adv-x="1130" d="M-14 1372h278l299 -631l299 631h281l-453 -866v-506h-254v506zM262 1516v247h248v-247h-248zM645 1516v247h248v-247h-248z" />
<glyph unicode="&#x2c6;" d="M164 1167l242 271h221l237 -271h-250l-98 133l-104 -133h-248z" />
<glyph unicode="&#x2dc;" d="M184 1327q49 47 87 63.5t94 16.5q78 0 151 -25q55 -18 115 -18q78 0 135 55l78 -149q-72 -84 -197 -84q-33 0 -170 35q-68 16 -92 16q-66 0 -119 -55z" />
<glyph unicode="&#x2013;" d="M70 426v207h893v-207h-893z" />
<glyph unicode="&#x2014;" horiz-adv-x="1546" d="M0 418v219h1546v-219h-1546z" />
<glyph unicode="&#x2018;" horiz-adv-x="481" d="M117 864v262q0 154 119 215q55 31 126 31v-125q-59 -12 -83.5 -35.5t-24.5 -68.5q0 -18 2 -31h109v-248h-248z" />
<glyph unicode="&#x2019;" horiz-adv-x="481" d="M117 1124v248h248v-262q0 -123 -78 -188q-70 -57 -156 -58h-12v125q59 10 83.5 34t24.5 71q0 18 -2 30h-108z" />
<glyph unicode="&#x201a;" horiz-adv-x="481" d="M117 0v248h248v-262q0 -123 -78 -189q-70 -57 -156 -57h-12v125q59 10 83.5 33.5t24.5 70.5q0 18 -2 31h-108z" />
<glyph unicode="&#x201c;" horiz-adv-x="864" d="M117 864v262q0 154 119 215q55 31 126 31v-125q-59 -12 -83.5 -35.5t-24.5 -68.5q0 -18 2 -31h109v-248h-248zM502 864v262q0 152 116 215q55 31 127 31v-125q-57 -10 -81.5 -33.5t-24.5 -70.5v-31h109v-248h-246z" />
<glyph unicode="&#x201d;" horiz-adv-x="864" d="M117 1124v248h248v-262q0 -123 -78 -188q-70 -57 -156 -58h-12v125q59 10 83.5 34t24.5 71q0 18 -2 30h-108zM502 1124v248h246v-262q0 -123 -78 -188q-68 -57 -154 -58h-12v125q57 10 81.5 34t24.5 71v30h-108z" />
<glyph unicode="&#x201e;" horiz-adv-x="864" d="M117 0v248h248v-262q0 -123 -78 -189q-70 -57 -156 -57h-12v125q59 10 83.5 33.5t24.5 70.5q0 18 -2 31h-108zM502 0v248h246v-262q0 -123 -78 -189q-68 -57 -154 -57h-12v125q57 10 81.5 33.5t24.5 70.5v31h-108z" />
<glyph unicode="&#x2022;" horiz-adv-x="1372" d="M403 696q0 119 85 203t206 84q115 0 198 -85t83 -201.5t-84 -200.5t-201 -84q-119 0 -203 83.5t-84 200.5z" />
<glyph unicode="&#x2026;" horiz-adv-x="1441" d="M117 0v248h248v-248h-248zM598 0v248h248v-248h-248zM1077 0v248h248v-248h-248z" />
<glyph unicode="&#x2039;" horiz-adv-x="423" d="M76 436v187l258 241v-229l-125 -105l125 -108v-229z" />
<glyph unicode="&#x203a;" horiz-adv-x="423" d="M90 193v229l125 108l-125 105v229l258 -241v-187z" />
<glyph unicode="&#x20ac;" horiz-adv-x="1464" d="M57 506l58 135h118q-2 16 -2 53q0 23 2 37h-176l58 135h139q63 238 254.5 386.5t431.5 148.5q270 0 467 -172l-107 -248q-55 63 -104 98q-121 84 -264 84q-131 0 -246 -83t-166 -214h731l-57 -135h-707q-2 -16 -2 -43q0 -29 2 -47h668l-57 -135h-576q55 -133 171 -214 t249 -81q170 0 303 129v-299q-141 -68 -299 -68q-238 0 -432.5 149.5t-257.5 383.5h-199z" />
<glyph unicode="&#x2122;" horiz-adv-x="1603" d="M35 1225v147h485v-147h-155v-635h-172v635h-158zM584 590v782h231l221 -569l221 569h230v-782h-172v547l-209 -547h-141l-209 547v-547h-172z" />
<glyph unicode="&#xe000;" d="M0 1030h1030v-1030h-1030v1030z" />
<glyph unicode="&#xfb01;" horiz-adv-x="1048" d="M63 803v227h89q14 160 84 246q96 123 251 123q43 0 70 -2v-240q-90 0 -120.5 -24.5t-37.5 -102.5h144v-227h-144v-803h-247v803h-89zM688 0v1030h248v-1030h-248zM688 1145v227h248v-227h-248z" />
<glyph unicode="&#xfb02;" horiz-adv-x="1048" d="M63 803v227h89q14 160 84 246q96 123 251 123q43 0 70 -2v-240q-90 0 -120.5 -24.5t-37.5 -102.5h144v-227h-144v-803h-247v803h-89zM688 0v1372h248v-1372h-248z" />
<glyph unicode="&#xfb03;" horiz-adv-x="1587" d="M63 803v227h89q14 160 84 246q96 123 253 123q41 0 68 -2v-240q-90 0 -120.5 -24.5t-37.5 -102.5h291q14 160 84 246q96 123 252 123q41 0 68 -2v-240q-88 0 -119 -24.5t-37 -102.5h143v-227h-143v-803h-248v803h-291v-803h-247v803h-89zM1227 0v1030h248v-1030h-248z M1227 1145v227h248v-227h-248z" />
<glyph unicode="&#xfb04;" horiz-adv-x="1587" d="M63 803v227h89q14 160 84 246q96 123 253 123q41 0 68 -2v-240q-90 0 -120.5 -24.5t-37.5 -102.5h291q14 160 84 246q96 123 252 123q41 0 68 -2v-240q-88 0 -119 -24.5t-37 -102.5h143v-227h-143v-803h-248v803h-291v-803h-247v803h-89zM1227 0v1372h248v-1372h-248z " />
</font>
</defs>
</svg>
